<svg id="Capa_1" data-name="Capa 1" xmlns="http://www.w3.org/2000/svg" viewBox="0 0 108.44 108.48"><defs><style>.cls-1{fill:#a8c687;}</style></defs><title>ICONO FACEBOOK</title><path class="cls-1" d="M62.35,89.1c0-5.51.06-11,0-16.53,0-2,.65-2.75,2.63-2.68,2.63.11,5.27,0,7.91,0,1.53,0,2.29-.45,2.49-2.13.4-3.57.94-7.13,1.62-10.65.38-2-.37-2.38-2.1-2.34-3.35.07-6.71,0-10.07,0-1.67,0-2.53-.46-2.47-2.3.09-2.79-.06-5.59.05-8.38.18-5,3.19-8,8.16-8.27,1.75-.11,3.52-.08,5.27,0,1.43,0,2-.62,2-2,0-3,0-5.91,0-8.87a1.87,1.87,0,0,0-1.75-2.16c-5.32-.6-10.65-1.27-16,0C52.22,24.57,46.81,31,46.31,39.42c-.25,4.22-.19,8.47-.1,12.7,0,2-.48,2.9-2.69,2.76-2.94-.19-5.91,0-8.86-.07-1.59,0-2.35.44-2.31,2.17.09,3.59.09,7.19,0,10.78,0,1.73.74,2.21,2.32,2.17,3-.06,5.91,0,8.86,0,1.81-.05,2.64.6,2.64,2.48q-.06,16.77,0,33.54c0,2.46-1.33,2.25-3,1.91a52.47,52.47,0,0,1-26-13.52C5.83,83.46,0,70.16,0,54.37a54.21,54.21,0,0,1,108.19-4.76c2.6,27.32-15.85,52.53-42.55,58.12-3.19.67-3.29.6-3.29-2.57Q62.34,97.14,62.35,89.1Z"/></svg>