<svg id="Capa_1" data-name="Capa 1" xmlns="http://www.w3.org/2000/svg" viewBox="0 0 108.44 108.48"><defs><style>.cls-1{fill:#a8c687;}</style></defs><title>ICONO IMSTAGRAM</title><path class="cls-1" d="M54.38,108.48a54.24,54.24,0,1,1,54.07-54.14A54.25,54.25,0,0,1,54.38,108.48ZM87.6,54.26c0-5,.16-10.07,0-15.09-.39-10.59-7.5-17.85-18-18.27q-15.06-.6-30.16,0c-11,.42-18.14,7.52-18.52,18.32q-.53,15.07,0,30.16c.37,10.5,7.55,17.75,17.83,18.25s20.73.45,31.1,0c9.31-.42,15.91-6.28,17.43-15.43C88.19,66.24,87.55,60.23,87.6,54.26Z"/><path class="cls-1" d="M81,54.46c0,4.37.08,8.73,0,13.1-.2,8.52-5,13.15-13.57,13.52-8.8.38-17.6.25-26.4,0-8.53-.27-13.43-5-13.56-13.5q-.18-13.22,0-26.43c.12-8.55,4.9-13.44,13.44-13.61q13.32-.29,26.65,0c8.57.18,13.25,5.05,13.44,13.62C81.08,45.57,81,50,81,54.46Zm-10.35-.15A16.44,16.44,0,1,0,54.12,70.7,16.42,16.42,0,0,0,70.65,54.31Zm1-21.05a3.59,3.59,0,0,0-3.59,3.67,3.35,3.35,0,0,0,3.48,3.46A3.51,3.51,0,0,0,75.21,37,3.8,3.8,0,0,0,71.67,33.26Z"/><path class="cls-1" d="M54.06,64.84A10.69,10.69,0,0,1,43.63,54.13a10.59,10.59,0,1,1,21.17.3A10.68,10.68,0,0,1,54.06,64.84Z"/></svg>