<svg id="Capa_1" data-name="Capa 1" xmlns="http://www.w3.org/2000/svg" viewBox="0 0 100 100">
    <title>wasap icono 02</title>
    <path d="M71.75,59.43,69,58.11c-5-2.42-5-2.48-8.4,1.76-1.64,2.07-3.24,2.68-5.72,1.49A33.24,33.24,0,0,1,40.39,48.45c-.86-1.41-1.12-2.77.21-3.91,3.22-2.77,3.07-5.83,1.08-9.22a29.09,29.09,0,0,1-1.41-3.39c-2-4.78-6.17-5.29-9.41-1.12-4,5.11-3.74,10.53-.94,16A54.35,54.35,0,0,0,43.66,63.49a41.39,41.39,0,0,0,20,9.08c4-.15,7.06-1.24,9.55-3.73C76.8,65.28,76.18,61.55,71.75,59.43Z" style="fill:#5b8676"/><path d="M45.62,4.22C13.92,8.56-3.33,41.57,10.5,70.43a7.63,7.63,0,0,1,.51,5.9C9.28,82.15,7.85,88.07,6.13,93.89c-.68,2.31,0,2.69,2,2.12,6.19-1.67,12.4-3.23,18.57-4.94a7,7,0,0,1,5.3.49A43.66,43.66,0,0,0,50.24,96,46,46,0,0,0,97.82,50,45.62,45.62,0,0,0,45.62,4.22Zm4.44,85.59a37.16,37.16,0,0,1-18.12-5.17,4.87,4.87,0,0,0-4.12-.48c-3.43,1-6.89,1.84-10.34,2.75-2,.52-3-.17-2.1-2.17,3.26-7.48,1.91-14.11-1.13-21.75C5.72,41.55,19.08,17.07,41.41,11.17A40.14,40.14,0,0,1,91.25,43C95.62,68.19,75.05,91.55,50.06,89.81Z" style="fill:#5b8676"/></svg>
