<svg id="Capa_1" data-name="Capa 1" xmlns="http://www.w3.org/2000/svg" viewBox="0 0 108.44 108.48"><defs><style>.cls-1{fill:#a8c687;}</style></defs><title>ICONO WHATSAPP</title><path class="cls-1" d="M0,54.42C-.54,25.73,23.1,0,54.21,0c29.56,0,54.23,24.51,54.23,53.87A54.22,54.22,0,1,1,0,54.42Zm89.71-1.18A33.56,33.56,0,0,0,51.32,19.58C28,22.78,15.33,47.05,25.5,68.27a5.61,5.61,0,0,1,.37,4.34c-1.27,4.28-2.32,8.63-3.59,12.91-.5,1.7,0,2,1.51,1.56,4.54-1.23,9.11-2.37,13.65-3.63a5.1,5.1,0,0,1,3.9.36A32.27,32.27,0,0,0,54.72,87.1,33.85,33.85,0,0,0,89.71,53.24Z"/><path class="cls-1" d="M54.7,79.87a24.75,24.75,0,0,1-12.12-3.45,3.24,3.24,0,0,0-2.76-.32c-2.29.66-4.6,1.23-6.91,1.84-1.33.34-2-.12-1.41-1.45,2.19-5,1.28-9.44-.75-14.55C25,47.6,34,31.22,48.92,27.27A26.85,26.85,0,0,1,82.26,48.58C85.17,65.41,71.42,81,54.7,79.87Zm9.12-11.53a9,9,0,0,0,6.39-2.49c2.38-2.38,2-4.88-1-6.3l-1.81-.88C64.08,57.06,64,57,61.78,59.85c-1.1,1.38-2.17,1.79-3.83,1a22.3,22.3,0,0,1-9.72-8.64c-.57-.94-.75-1.85.14-2.61,2.16-1.86,2.06-3.91.73-6.17a19,19,0,0,1-1-2.27c-1.33-3.2-4.13-3.54-6.29-.75-2.66,3.42-2.51,7.05-.63,10.71a36.38,36.38,0,0,0,9.19,11.15A27.6,27.6,0,0,0,63.82,68.34Z"/></svg>